<svg width="436" height="351" viewBox="0 0 436 351" fill="none" xmlns="http://www.w3.org/2000/svg">
<g clip-path="url(#clip0)" filter="url(#filter0_d)">
<path d="M71.8287 342.387C71.8287 342.387 65.6625 327.21 84.1605 315.826L71.8287 342.387Z" fill="#F0F0F0"/>
<path d="M64.2454 342.111C64.2454 342.111 62.3645 331.293 47.8062 331.386L64.2454 342.111Z" fill="#F0F0F0"/>
<path d="M278.286 342.387C278.286 342.387 272.12 327.21 290.618 315.826L278.286 342.387Z" fill="#F0F0F0"/>
<path d="M270.703 342.111C270.703 342.111 268.822 331.293 254.263 331.386L270.703 342.111Z" fill="#F0F0F0"/>
<path d="M273.207 244.114C302.808 244.114 326.805 220.118 326.805 190.516C326.805 160.915 302.808 136.918 273.207 136.918C243.606 136.918 219.609 160.915 219.609 190.516C219.609 220.118 243.606 244.114 273.207 244.114Z" fill="#F0F0F0"/>
<path d="M273.354 190.516H273.502L276.152 342.476H270.557L273.354 190.516Z" fill="#F0F0F0"/>
<path d="M388.281 270.734C409.872 270.734 427.374 253.231 427.374 231.641C427.374 210.05 409.872 192.548 388.281 192.548C366.691 192.548 349.189 210.05 349.189 231.641C349.189 253.231 366.691 270.734 388.281 270.734Z" fill="#F0F0F0"/>
<path d="M388.389 231.64H388.496L390.429 342.476H386.348L388.389 231.64Z" fill="#F0F0F0"/>
<path d="M171.803 232.038C172.552 231.952 173.273 231.703 173.915 231.308C174.557 230.913 175.105 230.382 175.52 229.753C175.935 229.124 176.207 228.411 176.316 227.665C176.426 226.92 176.371 226.159 176.155 225.437L191.015 214.719L182.114 211.338L169.367 222.035C168.178 222.478 167.193 223.342 166.599 224.464C166.004 225.585 165.842 226.885 166.142 228.118C166.442 229.351 167.185 230.431 168.228 231.154C169.271 231.876 170.543 232.191 171.803 232.038H171.803Z" fill="#FFB6B6"/>
<path d="M160.909 337.175L156.19 337.174L153.945 318.974H160.91L160.909 337.175Z" fill="#FFB6B6"/>
<path d="M162.112 341.748L146.897 341.748V341.555C146.897 339.985 147.521 338.479 148.632 337.368C149.743 336.257 151.249 335.634 152.819 335.633H152.82L162.112 335.634L162.112 341.748Z" fill="#2F2E41"/>
<path d="M124.867 337.175L120.148 337.174L117.904 318.974H124.868L124.867 337.175Z" fill="#FFB6B6"/>
<path d="M126.07 341.748L110.856 341.748V341.555C110.856 339.985 111.48 338.479 112.59 337.368C113.701 336.257 115.207 335.634 116.778 335.633H116.778L126.071 335.634L126.07 341.748Z" fill="#2F2E41"/>
<path d="M128.512 235.966L118.512 290.652L115.014 334.09L126.37 333.531L132.834 291.35L148.901 254.623L153.682 333.43L164.136 333.463L169.76 233.779L128.512 235.966Z" fill="#2F2E41"/>
<path d="M171.04 173.372L157.024 167.795L140.945 169.635L127.313 177.171C127.313 177.171 131.483 229.466 125.439 241.732C125.439 241.732 130.282 248.44 150.014 246.803C150.014 246.803 169.235 244.373 169.711 238.07C170.188 231.768 170.288 220.308 170.288 220.308L176.96 197.317L171.04 173.372Z" fill="#00D66F"/>
<path d="M132.792 178.177L127.313 177.171C127.313 177.171 121.483 179.727 121.543 187.344C121.603 194.961 111.244 220.498 123.638 221.569C136.031 222.64 132.792 203.46 132.792 203.46V178.177Z" fill="#00D66F"/>
<path d="M166.595 176.617L171.04 173.372C171.04 173.372 177.828 174.906 180.338 180.369C180.338 180.369 208.172 200.556 200.516 208.211C192.86 215.867 177.254 225.29 177.254 225.29L171.476 218.747L185.812 205.76L174.051 195.047L166.595 176.617Z" fill="#00D66F"/>
<path d="M159.487 153.296C159.485 156.347 158.272 159.272 156.114 161.428C153.956 163.585 151.031 164.796 147.98 164.796C144.929 164.796 142.004 163.585 139.846 161.428C137.688 159.272 136.475 156.347 136.473 153.296V152.855C136.591 149.845 137.884 147.001 140.075 144.935C142.266 142.868 145.181 141.742 148.192 141.8C151.204 141.858 154.072 143.094 156.183 145.244C158.293 147.393 159.476 150.284 159.478 153.296H159.487Z" fill="#FFB6B6"/>
<path d="M149.729 151.441C150.465 151.321 151.263 151.206 151.923 151.544C153.357 152.278 153.027 154.356 153.81 155.729C154.119 156.273 154.62 156.718 154.826 157.307C155.032 157.896 154.906 158.632 155.229 159.2C155.698 160.022 156.967 160.142 157.8 159.654C158.588 159.108 159.159 158.302 159.414 157.377C159.69 156.594 159.923 155.729 160.591 155.216C160.834 155.078 161.052 154.9 161.236 154.689C161.374 154.41 161.428 154.097 161.389 153.788C161.389 151.798 161.08 150.255 161.531 148.326C162.252 145.217 162.912 143.68 160.627 141.374C159.457 140.208 157.952 139.438 156.322 139.172C154.85 138.93 152.682 140.985 151.192 140.938C147.403 140.788 144.205 137.278 140.592 138.412C139.013 138.908 137.643 139.916 136.7 141.277C134.933 143.88 135.092 144.887 135.348 147.993C135.344 148.229 135.413 148.461 135.545 148.656C135.678 148.815 135.893 148.9 136.022 149.062C136.162 149.276 136.214 149.535 136.17 149.787C136.13 150.293 136.012 150.789 135.819 151.259C135.771 151.337 135.741 151.426 135.731 151.518C135.722 151.61 135.734 151.702 135.766 151.789C135.839 151.887 135.943 151.958 136.061 151.989C137.533 152.519 139.123 151.497 140.698 151.524C142.274 151.55 143.769 152.604 145.395 152.375C146.829 152.154 148.283 151.68 149.729 151.441Z" fill="#2F2E41"/>
<path d="M149.653 215.414C149.555 215.452 149.453 215.478 149.349 215.492L136.571 217.276C136.262 217.32 135.947 217.258 135.678 217.099C135.409 216.941 135.202 216.695 135.091 216.404L124.092 187.784C124.021 187.599 123.991 187.401 124.003 187.203C124.015 187.004 124.07 186.811 124.164 186.636C124.258 186.461 124.388 186.309 124.547 186.189C124.705 186.069 124.887 185.984 125.081 185.941H125.081L137.097 183.26C137.189 183.239 137.279 183.206 137.363 183.162L149.051 177.052C149.141 177.004 149.236 176.967 149.335 176.941L162.197 173.512C162.526 173.424 162.877 173.46 163.181 173.615C163.484 173.77 163.72 174.032 163.842 174.351L173.432 199.305C173.516 199.523 173.544 199.758 173.512 199.989C173.48 200.22 173.39 200.439 173.25 200.625L169.934 205.079C169.778 205.289 169.565 205.45 169.322 205.544L162.073 208.329C162.021 208.349 161.971 208.373 161.923 208.401L149.845 215.323C149.783 215.358 149.719 215.389 149.653 215.414Z" fill="white"/>
<path d="M155.598 177.327L153.964 177.763L149.636 178.917L149.628 178.919L143.703 182.017L141.504 183.167L141.503 183.168L138.2 184.895L138.109 184.915L134.678 185.68L133.02 186.051L126.256 187.56L136.874 215.188L143.844 214.215L145.553 213.976L149.195 213.467L149.237 213.462L160.941 206.754L168.063 204.017L171.314 199.651L162.071 175.602L155.598 177.327Z" fill="#E4E4E4"/>
<path d="M163.594 179.564L128.384 193.095L128.987 194.664L164.197 181.133L163.594 179.564Z" fill="white"/>
<path d="M165.604 184.794L130.394 198.326L130.997 199.894L166.207 186.363L165.604 184.794Z" fill="white"/>
<path d="M169.664 195.358L134.454 208.89L135.057 210.459L170.267 196.927L169.664 195.358Z" fill="white"/>
<path d="M155.598 177.327L166.139 204.757L164.57 205.36L153.964 177.763L155.598 177.327Z" fill="white"/>
<path d="M143.703 182.017L141.538 188.04L140.788 190.129L139.037 195.004L138.662 196.046L138.286 197.093L137.792 198.468L134.244 208.343L133.321 205.943L136.214 197.889L136.869 196.066L136.965 195.8L137.739 193.644L138.715 190.926L139.466 188.836L141.502 183.168L141.503 183.168L143.703 182.017Z" fill="white"/>
<path d="M134.678 185.68L145.552 213.977L143.844 214.215L133.02 186.051L134.678 185.68Z" fill="white"/>
<path d="M132.351 212.775C135.115 212.775 137.356 210.534 137.356 207.77C137.356 205.005 135.115 202.764 132.351 202.764C129.586 202.764 127.345 205.005 127.345 207.77C127.345 210.534 129.586 212.775 132.351 212.775Z" fill="#FFB6B6"/>
<path d="M339.047 177.907C388.174 177.907 428 138.081 428 88.9533C428 39.8257 388.174 -6.10352e-05 339.047 -6.10352e-05C289.919 -6.10352e-05 250.093 39.8257 250.093 88.9533C250.093 138.081 289.919 177.907 339.047 177.907Z" fill="#E4E4E4"/>
<path opacity="0.1" d="M404.727 29.5395C413.024 48.9485 414.15 70.6755 407.903 90.838C401.655 111 388.442 128.285 370.624 139.602C352.806 150.919 331.545 155.532 310.639 152.616C289.733 149.7 270.545 139.446 256.504 123.685C261.573 135.543 269.159 146.158 278.737 154.793C288.315 163.428 299.656 169.877 311.974 173.695C324.292 177.512 337.293 178.605 350.076 176.899C362.858 175.193 375.117 170.728 386.003 163.814C396.888 156.899 406.141 147.701 413.119 136.856C420.097 126.011 424.633 113.779 426.414 101.006C428.195 88.2339 427.178 75.2271 423.434 62.8868C419.689 50.5466 413.306 39.168 404.727 29.5395Z" fill="black"/>
<path d="M338.802 88.953H338.558L334.159 341.151H343.446L338.802 88.953Z" fill="#E4E4E4"/>
<path d="M403.728 342.226H0.483483C0.355249 342.226 0.232267 342.175 0.141592 342.085C0.0509174 341.994 -2.28882e-05 341.871 -2.28882e-05 341.743C-2.28882e-05 341.615 0.0509174 341.492 0.141592 341.401C0.232267 341.31 0.355249 341.259 0.483483 341.259H403.728C403.856 341.259 403.979 341.31 404.069 341.401C404.16 341.492 404.211 341.615 404.211 341.743C404.211 341.871 404.16 341.994 404.069 342.085C403.979 342.175 403.856 342.226 403.728 342.226Z" fill="#CACACA"/>
</g>
<defs>
<filter id="filter0_d" x="0" y="0" width="436" height="350.475" filterUnits="userSpaceOnUse" color-interpolation-filters="sRGB">
<feFlood flood-opacity="0" result="BackgroundImageFix"/>
<feColorMatrix in="SourceAlpha" type="matrix" values="0 0 0 0 0 0 0 0 0 0 0 0 0 0 0 0 0 0 127 0"/>
<feOffset dx="4" dy="4"/>
<feGaussianBlur stdDeviation="2"/>
<feColorMatrix type="matrix" values="0 0 0 0 0 0 0 0 0 0 0 0 0 0 0 0 0 0 0.25 0"/>
<feBlend mode="normal" in2="BackgroundImageFix" result="effect1_dropShadow"/>
<feBlend mode="normal" in="SourceGraphic" in2="effect1_dropShadow" result="shape"/>
</filter>
<clipPath id="clip0">
<rect width="428" height="342.475" fill="white"/>
</clipPath>
</defs>
</svg>
